<svg width="204" height="28" viewBox="0 0 204 28" fill="none" xmlns="http://www.w3.org/2000/svg">
<g clip-path="url(#clip0_56_3248)">
<rect width="27.792" height="27.792" rx="6" fill="#0B68F7"/>
<path d="M13.6748 6.34898L13.6758 6.34995L13.6777 6.34898L13.6768 6.34995C13.885 6.35317 14.0869 6.42218 14.252 6.54917C14.4174 6.67646 14.5374 6.85406 14.5938 7.05503L17.4717 17.2904L18.8877 13.5169C18.9568 13.3326 19.0804 13.1731 19.2422 13.0609C19.4039 12.9488 19.5962 12.8892 19.793 12.889H42.1826C42.4391 12.8891 42.6848 12.9909 42.8662 13.1722C43.0477 13.3537 43.1504 13.6002 43.1504 13.8568C43.1503 14.1133 43.0476 14.359 42.8662 14.5404C42.6848 14.7217 42.4391 14.8235 42.1826 14.8236H20.4639L18.2461 20.7367C18.1745 20.9274 18.0448 21.0909 17.875 21.2035C17.705 21.3161 17.5035 21.3722 17.2998 21.3636C17.0961 21.355 16.9002 21.2821 16.7402 21.1556C16.5803 21.0291 16.4644 20.8549 16.4092 20.6585L13.6123 10.7152L12.541 14.1449C12.4796 14.3416 12.3564 14.5139 12.1904 14.6361C12.0245 14.758 11.824 14.8234 11.6182 14.8236H-9.18262C-9.43911 14.8235 -9.68481 14.7217 -9.86621 14.5404C-10.0476 14.359 -10.1503 14.1133 -10.1504 13.8568C-10.1504 13.6002 -10.0477 13.3537 -9.86621 13.1722C-9.68482 12.9909 -9.43907 12.8891 -9.18262 12.889H10.9072L12.7383 7.02769L12.7959 6.88316C12.8653 6.74437 12.9677 6.6234 13.0947 6.5316C13.2626 6.41032 13.4649 6.34772 13.6719 6.34995L13.6729 6.34898H13.6748Z" fill="white" stroke="white" stroke-width="0.3"/>
</g>
<path d="M36.7099 21.896C36.2259 21.896 35.8519 21.7714 35.5879 21.522C35.3386 21.258 35.2139 20.884 35.2139 20.4V7.88202C35.2139 7.39802 35.3386 7.03135 35.5879 6.78202C35.8519 6.51802 36.2259 6.38602 36.7099 6.38602H40.9779C43.5739 6.38602 45.5759 7.05335 46.9839 8.38802C48.4066 9.72269 49.1179 11.6367 49.1179 14.13C49.1179 15.3767 48.9346 16.484 48.5679 17.452C48.2159 18.4054 47.6879 19.212 46.9839 19.872C46.2946 20.532 45.4439 21.038 44.4319 21.39C43.4346 21.7274 42.2832 21.896 40.9779 21.896H36.7099ZM38.0299 19.564H40.8019C41.7112 19.564 42.4959 19.454 43.1559 19.234C43.8306 18.9994 44.3879 18.662 44.8279 18.222C45.2826 17.7674 45.6199 17.2027 45.8399 16.528C46.0599 15.8387 46.1699 15.0394 46.1699 14.13C46.1699 12.3114 45.7226 10.9547 44.8279 10.06C43.9332 9.16535 42.5912 8.71802 40.8019 8.71802H38.0299V19.564ZM56.6137 22.116C55.499 22.116 54.531 21.8887 53.7097 21.434C52.8884 20.9794 52.2504 20.334 51.7957 19.498C51.341 18.6474 51.1137 17.65 51.1137 16.506C51.1137 15.6407 51.2384 14.8707 51.4877 14.196C51.7517 13.5067 52.1257 12.92 52.6097 12.436C53.0937 11.9374 53.673 11.5634 54.3477 11.314C55.0224 11.05 55.7777 10.918 56.6137 10.918C57.7284 10.918 58.6964 11.1454 59.5177 11.6C60.339 12.0547 60.977 12.7 61.4317 13.536C61.8864 14.372 62.1137 15.362 62.1137 16.506C62.1137 17.3714 61.9817 18.1487 61.7177 18.838C61.4684 19.5274 61.1017 20.1214 60.6177 20.62C60.1337 21.104 59.5544 21.478 58.8797 21.742C58.205 21.9914 57.4497 22.116 56.6137 22.116ZM56.6137 20.026C57.1564 20.026 57.633 19.894 58.0437 19.63C58.4544 19.366 58.7697 18.9774 58.9897 18.464C59.2244 17.936 59.3417 17.2834 59.3417 16.506C59.3417 15.3327 59.0924 14.46 58.5937 13.888C58.095 13.3014 57.435 13.008 56.6137 13.008C56.071 13.008 55.5944 13.14 55.1837 13.404C54.773 13.6534 54.4504 14.042 54.2157 14.57C53.9957 15.0834 53.8857 15.7287 53.8857 16.506C53.8857 17.6647 54.135 18.5447 54.6337 19.146C55.1324 19.7327 55.7924 20.026 56.6137 20.026ZM69.3555 22.116C68.2262 22.116 67.2435 21.8887 66.4075 21.434C65.5715 20.9647 64.9262 20.3047 64.4715 19.454C64.0168 18.6034 63.7895 17.606 63.7895 16.462C63.7895 15.5967 63.9142 14.8267 64.1635 14.152C64.4275 13.4627 64.8015 12.8834 65.2855 12.414C65.7695 11.93 66.3562 11.5634 67.0455 11.314C67.7348 11.05 68.5048 10.918 69.3555 10.918C69.8395 10.918 70.3602 10.984 70.9175 11.116C71.4895 11.248 72.0248 11.468 72.5235 11.776C72.7582 11.9227 72.9122 12.0987 72.9855 12.304C73.0588 12.5094 73.0735 12.722 73.0295 12.942C72.9855 13.1474 72.8902 13.3307 72.7435 13.492C72.6115 13.6387 72.4428 13.734 72.2375 13.778C72.0322 13.8074 71.8048 13.756 71.5555 13.624C71.2328 13.4334 70.9028 13.294 70.5655 13.206C70.2282 13.1034 69.9055 13.052 69.5975 13.052C69.1135 13.052 68.6882 13.1327 68.3215 13.294C67.9548 13.4407 67.6395 13.6607 67.3755 13.954C67.1262 14.2327 66.9355 14.5847 66.8035 15.01C66.6715 15.4354 66.6055 15.9267 66.6055 16.484C66.6055 17.5694 66.8622 18.4274 67.3755 19.058C67.9035 19.674 68.6442 19.982 69.5975 19.982C69.9055 19.982 70.2208 19.938 70.5435 19.85C70.8808 19.762 71.2182 19.6227 71.5555 19.432C71.8048 19.3 72.0248 19.256 72.2155 19.3C72.4208 19.344 72.5895 19.4467 72.7215 19.608C72.8535 19.7547 72.9342 19.938 72.9635 20.158C72.9928 20.3634 72.9635 20.5687 72.8755 20.774C72.8022 20.9794 72.6555 21.148 72.4355 21.28C71.9515 21.5734 71.4382 21.786 70.8955 21.918C70.3528 22.05 69.8395 22.116 69.3555 22.116ZM79.7314 22.116C78.7781 22.116 77.9787 21.9547 77.3334 21.632C76.7027 21.3094 76.2334 20.84 75.9254 20.224C75.6174 19.5934 75.4634 18.816 75.4634 17.892V13.206H74.3194C73.9674 13.206 73.6961 13.118 73.5054 12.942C73.3147 12.7514 73.2194 12.4947 73.2194 12.172C73.2194 11.8347 73.3147 11.578 73.5054 11.402C73.6961 11.226 73.9674 11.138 74.3194 11.138H75.4634V9.13602C75.4634 8.68135 75.5807 8.33669 75.8154 8.10202C76.0647 7.86735 76.4094 7.75002 76.8494 7.75002C77.2894 7.75002 77.6267 7.86735 77.8614 8.10202C78.0961 8.33669 78.2134 8.68135 78.2134 9.13602V11.138H80.5454C80.8974 11.138 81.1687 11.226 81.3594 11.402C81.5501 11.578 81.6454 11.8347 81.6454 12.172C81.6454 12.4947 81.5501 12.7514 81.3594 12.942C81.1687 13.118 80.8974 13.206 80.5454 13.206H78.2134V17.738C78.2134 18.442 78.3674 18.97 78.6754 19.322C78.9834 19.674 79.4821 19.85 80.1714 19.85C80.4207 19.85 80.6407 19.828 80.8314 19.784C81.0221 19.74 81.1907 19.7107 81.3374 19.696C81.5134 19.6814 81.6601 19.74 81.7774 19.872C81.8947 19.9894 81.9534 20.2387 81.9534 20.62C81.9534 20.9134 81.9021 21.1774 81.7994 21.412C81.7114 21.632 81.5427 21.786 81.2934 21.874C81.1027 21.9327 80.8534 21.984 80.5454 22.028C80.2374 22.0867 79.9661 22.116 79.7314 22.116ZM88.0454 22.116C86.9307 22.116 85.9627 21.8887 85.1414 21.434C84.32 20.9794 83.682 20.334 83.2274 19.498C82.7727 18.6474 82.5454 17.65 82.5454 16.506C82.5454 15.6407 82.67 14.8707 82.9194 14.196C83.1834 13.5067 83.5574 12.92 84.0414 12.436C84.5254 11.9374 85.1047 11.5634 85.7794 11.314C86.454 11.05 87.2094 10.918 88.0454 10.918C89.16 10.918 90.128 11.1454 90.9494 11.6C91.7707 12.0547 92.4087 12.7 92.8634 13.536C93.318 14.372 93.5454 15.362 93.5454 16.506C93.5454 17.3714 93.4134 18.1487 93.1494 18.838C92.9 19.5274 92.5334 20.1214 92.0494 20.62C91.5654 21.104 90.986 21.478 90.3114 21.742C89.6367 21.9914 88.8814 22.116 88.0454 22.116ZM88.0454 20.026C88.588 20.026 89.0647 19.894 89.4754 19.63C89.886 19.366 90.2014 18.9774 90.4214 18.464C90.656 17.936 90.7734 17.2834 90.7734 16.506C90.7734 15.3327 90.524 14.46 90.0254 13.888C89.5267 13.3014 88.8667 13.008 88.0454 13.008C87.5027 13.008 87.026 13.14 86.6154 13.404C86.2047 13.6534 85.882 14.042 85.6474 14.57C85.4274 15.0834 85.3174 15.7287 85.3174 16.506C85.3174 17.6647 85.5667 18.5447 86.0654 19.146C86.564 19.7327 87.224 20.026 88.0454 20.026ZM97.2231 22.072C96.7685 22.072 96.4165 21.9547 96.1671 21.72C95.9325 21.4707 95.8151 21.1187 95.8151 20.664V12.348C95.8151 11.8934 95.9325 11.5487 96.1671 11.314C96.4018 11.0794 96.7318 10.962 97.1571 10.962C97.5825 10.962 97.9125 11.0794 98.1471 11.314C98.3818 11.5487 98.4991 11.8934 98.4991 12.348V13.734H98.2791C98.4845 12.854 98.8878 12.1867 99.4891 11.732C100.09 11.2774 100.89 11.006 101.887 10.918C102.195 10.8887 102.437 10.9694 102.613 11.16C102.804 11.336 102.914 11.6147 102.943 11.996C102.972 12.3627 102.884 12.6634 102.679 12.898C102.488 13.118 102.195 13.25 101.799 13.294L101.315 13.338C100.42 13.426 99.7458 13.7047 99.2911 14.174C98.8365 14.6287 98.6091 15.274 98.6091 16.11V20.664C98.6091 21.1187 98.4918 21.4707 98.2571 21.72C98.0225 21.9547 97.6778 22.072 97.2231 22.072ZM116.013 22.116C115.368 22.116 114.722 22.0647 114.077 21.962C113.432 21.874 112.823 21.7347 112.251 21.544C111.679 21.3387 111.166 21.0894 110.711 20.796C110.447 20.62 110.264 20.4074 110.161 20.158C110.058 19.9087 110.022 19.6667 110.051 19.432C110.095 19.1827 110.19 18.97 110.337 18.794C110.498 18.6034 110.696 18.486 110.931 18.442C111.166 18.398 111.422 18.464 111.701 18.64C112.346 19.0214 113.028 19.3 113.747 19.476C114.466 19.652 115.221 19.74 116.013 19.74C117.172 19.74 118.015 19.5494 118.543 19.168C119.071 18.772 119.335 18.266 119.335 17.65C119.335 17.1367 119.144 16.7334 118.763 16.44C118.396 16.1467 117.758 15.9047 116.849 15.714L114.429 15.208C113.036 14.9147 111.994 14.4234 111.305 13.734C110.63 13.03 110.293 12.106 110.293 10.962C110.293 10.2434 110.44 9.59069 110.733 9.00402C111.026 8.41735 111.437 7.91135 111.965 7.48602C112.508 7.06069 113.146 6.73802 113.879 6.51802C114.627 6.28335 115.448 6.16602 116.343 6.16602C117.223 6.16602 118.059 6.27602 118.851 6.49602C119.643 6.71602 120.354 7.03868 120.985 7.46402C121.22 7.62535 121.374 7.82335 121.447 8.05802C121.535 8.29269 121.557 8.52735 121.513 8.76202C121.469 8.98202 121.366 9.17269 121.205 9.33402C121.044 9.49535 120.838 9.59069 120.589 9.62002C120.354 9.64935 120.083 9.57602 119.775 9.40002C119.232 9.09202 118.682 8.87202 118.125 8.74002C117.568 8.60802 116.966 8.54202 116.321 8.54202C115.646 8.54202 115.067 8.63735 114.583 8.82802C114.099 9.01868 113.725 9.29002 113.461 9.64202C113.212 9.97935 113.087 10.3827 113.087 10.852C113.087 11.38 113.263 11.8054 113.615 12.128C113.967 12.436 114.568 12.678 115.419 12.854L117.817 13.36C119.269 13.668 120.347 14.152 121.051 14.812C121.77 15.472 122.129 16.352 122.129 17.452C122.129 18.156 121.982 18.794 121.689 19.366C121.41 19.938 121 20.4294 120.457 20.84C119.929 21.2507 119.291 21.566 118.543 21.786C117.795 22.006 116.952 22.116 116.013 22.116ZM129.254 22.116C128.125 22.116 127.142 21.8887 126.306 21.434C125.47 20.9647 124.825 20.3047 124.37 19.454C123.915 18.6034 123.688 17.606 123.688 16.462C123.688 15.5967 123.813 14.8267 124.062 14.152C124.326 13.4627 124.7 12.8834 125.184 12.414C125.668 11.93 126.255 11.5634 126.944 11.314C127.633 11.05 128.403 10.918 129.254 10.918C129.738 10.918 130.259 10.984 130.816 11.116C131.388 11.248 131.923 11.468 132.422 11.776C132.657 11.9227 132.811 12.0987 132.884 12.304C132.957 12.5094 132.972 12.722 132.928 12.942C132.884 13.1474 132.789 13.3307 132.642 13.492C132.51 13.6387 132.341 13.734 132.136 13.778C131.931 13.8074 131.703 13.756 131.454 13.624C131.131 13.4334 130.801 13.294 130.464 13.206C130.127 13.1034 129.804 13.052 129.496 13.052C129.012 13.052 128.587 13.1327 128.22 13.294C127.853 13.4407 127.538 13.6607 127.274 13.954C127.025 14.2327 126.834 14.5847 126.702 15.01C126.57 15.4354 126.504 15.9267 126.504 16.484C126.504 17.5694 126.761 18.4274 127.274 19.058C127.802 19.674 128.543 19.982 129.496 19.982C129.804 19.982 130.119 19.938 130.442 19.85C130.779 19.762 131.117 19.6227 131.454 19.432C131.703 19.3 131.923 19.256 132.114 19.3C132.319 19.344 132.488 19.4467 132.62 19.608C132.752 19.7547 132.833 19.938 132.862 20.158C132.891 20.3634 132.862 20.5687 132.774 20.774C132.701 20.9794 132.554 21.148 132.334 21.28C131.85 21.5734 131.337 21.786 130.794 21.918C130.251 22.05 129.738 22.116 129.254 22.116ZM136.023 22.072C135.583 22.072 135.246 21.9547 135.011 21.72C134.776 21.4707 134.659 21.1187 134.659 20.664V7.59602C134.659 7.14135 134.776 6.79668 135.011 6.56202C135.246 6.32735 135.583 6.21002 136.023 6.21002C136.463 6.21002 136.8 6.32735 137.035 6.56202C137.284 6.79668 137.409 7.14135 137.409 7.59602V13.294H137.101C137.424 12.5167 137.922 11.93 138.597 11.534C139.286 11.1234 140.064 10.918 140.929 10.918C141.794 10.918 142.506 11.0794 143.063 11.402C143.62 11.7247 144.038 12.216 144.317 12.876C144.596 13.5214 144.735 14.3427 144.735 15.34V20.664C144.735 21.1187 144.618 21.4707 144.383 21.72C144.148 21.9547 143.811 22.072 143.371 22.072C142.931 22.072 142.586 21.9547 142.337 21.72C142.102 21.4707 141.985 21.1187 141.985 20.664V15.472C141.985 14.636 141.824 14.0274 141.501 13.646C141.193 13.2647 140.709 13.074 140.049 13.074C139.242 13.074 138.597 13.3307 138.113 13.844C137.644 14.3427 137.409 15.01 137.409 15.846V20.664C137.409 21.6027 136.947 22.072 136.023 22.072ZM152.83 22.116C151.613 22.116 150.564 21.8887 149.684 21.434C148.804 20.9794 148.122 20.334 147.638 19.498C147.169 18.662 146.934 17.672 146.934 16.528C146.934 15.4134 147.161 14.438 147.616 13.602C148.085 12.766 148.723 12.1134 149.53 11.644C150.351 11.16 151.283 10.918 152.324 10.918C153.087 10.918 153.769 11.0427 154.37 11.292C154.986 11.5414 155.507 11.9007 155.932 12.37C156.372 12.8394 156.702 13.4114 156.922 14.086C157.157 14.746 157.274 15.494 157.274 16.33C157.274 16.594 157.179 16.7994 156.988 16.946C156.812 17.078 156.555 17.144 156.218 17.144H149.156V15.56H155.338L154.986 15.89C154.986 15.2154 154.883 14.6507 154.678 14.196C154.487 13.7414 154.201 13.3967 153.82 13.162C153.453 12.9127 152.991 12.788 152.434 12.788C151.818 12.788 151.29 12.9347 150.85 13.228C150.425 13.5067 150.095 13.91 149.86 14.438C149.64 14.9514 149.53 15.5674 149.53 16.286V16.44C149.53 17.6427 149.809 18.5447 150.366 19.146C150.938 19.7327 151.774 20.026 152.874 20.026C153.255 20.026 153.681 19.982 154.15 19.894C154.634 19.7914 155.089 19.6227 155.514 19.388C155.822 19.212 156.093 19.1387 156.328 19.168C156.563 19.1827 156.746 19.2634 156.878 19.41C157.025 19.5567 157.113 19.74 157.142 19.96C157.171 20.1654 157.127 20.378 157.01 20.598C156.907 20.818 156.724 21.0087 156.46 21.17C155.947 21.4927 155.353 21.7347 154.678 21.896C154.018 22.0427 153.402 22.116 152.83 22.116ZM163.588 22.116C162.649 22.116 161.821 21.8887 161.102 21.434C160.398 20.9794 159.848 20.334 159.452 19.498C159.056 18.6474 158.858 17.65 158.858 16.506C158.858 15.3474 159.056 14.3574 159.452 13.536C159.848 12.7 160.398 12.0547 161.102 11.6C161.821 11.1454 162.649 10.918 163.588 10.918C164.483 10.918 165.26 11.138 165.92 11.578C166.595 12.018 167.049 12.5974 167.284 13.316H167.042V7.59602C167.042 7.14135 167.159 6.79668 167.394 6.56202C167.629 6.32735 167.966 6.21002 168.406 6.21002C168.846 6.21002 169.183 6.32735 169.418 6.56202C169.667 6.79668 169.792 7.14135 169.792 7.59602V20.664C169.792 21.1187 169.675 21.4707 169.44 21.72C169.205 21.9547 168.868 22.072 168.428 22.072C167.988 22.072 167.651 21.9547 167.416 21.72C167.181 21.4707 167.064 21.1187 167.064 20.664V18.948L167.306 19.608C167.086 20.3707 166.639 20.9794 165.964 21.434C165.289 21.8887 164.497 22.116 163.588 22.116ZM164.358 20.026C164.901 20.026 165.377 19.894 165.788 19.63C166.199 19.366 166.514 18.9774 166.734 18.464C166.969 17.936 167.086 17.2834 167.086 16.506C167.086 15.3327 166.837 14.46 166.338 13.888C165.839 13.3014 165.179 13.008 164.358 13.008C163.815 13.008 163.339 13.14 162.928 13.404C162.517 13.6534 162.195 14.042 161.96 14.57C161.74 15.0834 161.63 15.7287 161.63 16.506C161.63 17.6647 161.879 18.5447 162.378 19.146C162.877 19.7327 163.537 20.026 164.358 20.026ZM176.537 22.116C175.643 22.116 174.902 21.9547 174.315 21.632C173.729 21.2947 173.289 20.796 172.995 20.136C172.717 19.476 172.577 18.6547 172.577 17.672V12.348C172.577 11.8787 172.695 11.534 172.929 11.314C173.164 11.0794 173.501 10.962 173.941 10.962C174.381 10.962 174.719 11.0794 174.953 11.314C175.203 11.534 175.327 11.8787 175.327 12.348V17.716C175.327 18.4787 175.481 19.0434 175.789 19.41C176.097 19.7767 176.589 19.96 177.263 19.96C177.997 19.96 178.598 19.7107 179.067 19.212C179.537 18.6987 179.771 18.024 179.771 17.188V12.348C179.771 11.8787 179.889 11.534 180.123 11.314C180.358 11.0794 180.695 10.962 181.135 10.962C181.575 10.962 181.913 11.0794 182.147 11.314C182.397 11.534 182.521 11.8787 182.521 12.348V20.664C182.521 21.6027 182.074 22.072 181.179 22.072C180.754 22.072 180.424 21.9547 180.189 21.72C179.955 21.4707 179.837 21.1187 179.837 20.664V18.992L180.145 19.652C179.837 20.444 179.368 21.0527 178.737 21.478C178.121 21.9034 177.388 22.116 176.537 22.116ZM189.057 22.116C187.84 22.116 186.923 21.7714 186.307 21.082C185.691 20.378 185.383 19.3514 185.383 18.002V7.59602C185.383 7.14135 185.501 6.79668 185.735 6.56202C185.97 6.32735 186.307 6.21002 186.747 6.21002C187.187 6.21002 187.525 6.32735 187.759 6.56202C188.009 6.79668 188.133 7.14135 188.133 7.59602V17.87C188.133 18.5447 188.273 19.0434 188.551 19.366C188.845 19.6887 189.255 19.85 189.783 19.85C189.901 19.85 190.011 19.85 190.113 19.85C190.216 19.8354 190.319 19.8207 190.421 19.806C190.627 19.7767 190.766 19.8354 190.839 19.982C190.913 20.114 190.949 20.3927 190.949 20.818C190.949 21.1847 190.876 21.4707 190.729 21.676C190.583 21.8814 190.341 22.006 190.003 22.05C189.857 22.0647 189.703 22.0794 189.541 22.094C189.38 22.1087 189.219 22.116 189.057 22.116ZM197.603 22.116C196.386 22.116 195.337 21.8887 194.457 21.434C193.577 20.9794 192.895 20.334 192.411 19.498C191.942 18.662 191.707 17.672 191.707 16.528C191.707 15.4134 191.935 14.438 192.389 13.602C192.859 12.766 193.497 12.1134 194.303 11.644C195.125 11.16 196.056 10.918 197.097 10.918C197.86 10.918 198.542 11.0427 199.143 11.292C199.759 11.5414 200.28 11.9007 200.705 12.37C201.145 12.8394 201.475 13.4114 201.695 14.086C201.93 14.746 202.047 15.494 202.047 16.33C202.047 16.594 201.952 16.7994 201.761 16.946C201.585 17.078 201.329 17.144 200.991 17.144H193.929V15.56H200.111L199.759 15.89C199.759 15.2154 199.657 14.6507 199.451 14.196C199.261 13.7414 198.975 13.3967 198.593 13.162C198.227 12.9127 197.765 12.788 197.207 12.788C196.591 12.788 196.063 12.9347 195.623 13.228C195.198 13.5067 194.868 13.91 194.633 14.438C194.413 14.9514 194.303 15.5674 194.303 16.286V16.44C194.303 17.6427 194.582 18.5447 195.139 19.146C195.711 19.7327 196.547 20.026 197.647 20.026C198.029 20.026 198.454 19.982 198.923 19.894C199.407 19.7914 199.862 19.6227 200.287 19.388C200.595 19.212 200.867 19.1387 201.101 19.168C201.336 19.1827 201.519 19.2634 201.651 19.41C201.798 19.5567 201.886 19.74 201.915 19.96C201.945 20.1654 201.901 20.378 201.783 20.598C201.681 20.818 201.497 21.0087 201.233 21.17C200.72 21.4927 200.126 21.7347 199.451 21.896C198.791 22.0427 198.175 22.116 197.603 22.116Z" fill="#0E0A2F"/>
<defs>
<clipPath id="clip0_56_3248">
<rect width="27.792" height="27.792" rx="6" fill="white"/>
</clipPath>
</defs>
</svg>
